<mxfile host="app.diagrams.net" modified="2023-05-26T08:35:53.456Z" agent="Mozilla/5.0 (Windows NT 10.0; Win64; x64) AppleWebKit/537.36 (KHTML, like Gecko) Chrome/112.0.0.0 Safari/537.36" etag="ZW_fKt6aL-HZ_zM-_IKI" version="21.2.1" type="github">
  <diagram name="Страница 1" id="jqLJMG1lo2tt2KMwntV-">
    <mxGraphModel dx="1128" dy="1595" grid="0" gridSize="10" guides="1" tooltips="1" connect="1" arrows="1" fold="1" page="1" pageScale="1" pageWidth="827" pageHeight="1169" math="0" shadow="0">
      <root>
        <mxCell id="0" />
        <mxCell id="1" parent="0" />
        <mxCell id="9MsVMKpVzg76BuHu7BU6-14" value="smallBiter" style="swimlane;fontStyle=1;align=center;verticalAlign=top;childLayout=stackLayout;horizontal=1;startSize=26;horizontalStack=0;resizeParent=1;resizeParentMax=0;resizeLast=0;collapsible=1;marginBottom=0;whiteSpace=wrap;html=1;" vertex="1" parent="1">
          <mxGeometry x="280" y="-530" width="190" height="390" as="geometry" />
        </mxCell>
        <mxCell id="9MsVMKpVzg76BuHu7BU6-15" value="+ count: static int" style="text;strokeColor=none;fillColor=none;align=left;verticalAlign=top;spacingLeft=4;spacingRight=4;overflow=hidden;rotatable=0;points=[[0,0.5],[1,0.5]];portConstraint=eastwest;whiteSpace=wrap;html=1;" vertex="1" parent="9MsVMKpVzg76BuHu7BU6-14">
          <mxGeometry y="26" width="190" height="24" as="geometry" />
        </mxCell>
        <mxCell id="9MsVMKpVzg76BuHu7BU6-18" value="+ directionR: double" style="text;strokeColor=none;fillColor=none;align=left;verticalAlign=top;spacingLeft=4;spacingRight=4;overflow=hidden;rotatable=0;points=[[0,0.5],[1,0.5]];portConstraint=eastwest;whiteSpace=wrap;html=1;" vertex="1" parent="9MsVMKpVzg76BuHu7BU6-14">
          <mxGeometry y="50" width="190" height="24" as="geometry" />
        </mxCell>
        <mxCell id="9MsVMKpVzg76BuHu7BU6-22" value="+ speed: double" style="text;strokeColor=none;fillColor=none;align=left;verticalAlign=top;spacingLeft=4;spacingRight=4;overflow=hidden;rotatable=0;points=[[0,0.5],[1,0.5]];portConstraint=eastwest;whiteSpace=wrap;html=1;" vertex="1" parent="9MsVMKpVzg76BuHu7BU6-14">
          <mxGeometry y="74" width="190" height="24" as="geometry" />
        </mxCell>
        <mxCell id="9MsVMKpVzg76BuHu7BU6-21" value="+ id: int" style="text;strokeColor=none;fillColor=none;align=left;verticalAlign=top;spacingLeft=4;spacingRight=4;overflow=hidden;rotatable=0;points=[[0,0.5],[1,0.5]];portConstraint=eastwest;whiteSpace=wrap;html=1;" vertex="1" parent="9MsVMKpVzg76BuHu7BU6-14">
          <mxGeometry y="98" width="190" height="24" as="geometry" />
        </mxCell>
        <mxCell id="9MsVMKpVzg76BuHu7BU6-23" value="+ armor: int" style="text;strokeColor=none;fillColor=none;align=left;verticalAlign=top;spacingLeft=4;spacingRight=4;overflow=hidden;rotatable=0;points=[[0,0.5],[1,0.5]];portConstraint=eastwest;whiteSpace=wrap;html=1;" vertex="1" parent="9MsVMKpVzg76BuHu7BU6-14">
          <mxGeometry y="122" width="190" height="24" as="geometry" />
        </mxCell>
        <mxCell id="9MsVMKpVzg76BuHu7BU6-20" value="+ health: int" style="text;strokeColor=none;fillColor=none;align=left;verticalAlign=top;spacingLeft=4;spacingRight=4;overflow=hidden;rotatable=0;points=[[0,0.5],[1,0.5]];portConstraint=eastwest;whiteSpace=wrap;html=1;" vertex="1" parent="9MsVMKpVzg76BuHu7BU6-14">
          <mxGeometry y="146" width="190" height="24" as="geometry" />
        </mxCell>
        <mxCell id="9MsVMKpVzg76BuHu7BU6-19" value="+ damage: int" style="text;strokeColor=none;fillColor=none;align=left;verticalAlign=top;spacingLeft=4;spacingRight=4;overflow=hidden;rotatable=0;points=[[0,0.5],[1,0.5]];portConstraint=eastwest;whiteSpace=wrap;html=1;" vertex="1" parent="9MsVMKpVzg76BuHu7BU6-14">
          <mxGeometry y="170" width="190" height="24" as="geometry" />
        </mxCell>
        <mxCell id="9MsVMKpVzg76BuHu7BU6-24" value="+ active: boolean" style="text;strokeColor=none;fillColor=none;align=left;verticalAlign=top;spacingLeft=4;spacingRight=4;overflow=hidden;rotatable=0;points=[[0,0.5],[1,0.5]];portConstraint=eastwest;whiteSpace=wrap;html=1;" vertex="1" parent="9MsVMKpVzg76BuHu7BU6-14">
          <mxGeometry y="194" width="190" height="24" as="geometry" />
        </mxCell>
        <mxCell id="9MsVMKpVzg76BuHu7BU6-25" value="+ name: String" style="text;strokeColor=none;fillColor=none;align=left;verticalAlign=top;spacingLeft=4;spacingRight=4;overflow=hidden;rotatable=0;points=[[0,0.5],[1,0.5]];portConstraint=eastwest;whiteSpace=wrap;html=1;" vertex="1" parent="9MsVMKpVzg76BuHu7BU6-14">
          <mxGeometry y="218" width="190" height="24" as="geometry" />
        </mxCell>
        <mxCell id="9MsVMKpVzg76BuHu7BU6-16" value="" style="line;strokeWidth=1;fillColor=none;align=left;verticalAlign=middle;spacingTop=-1;spacingLeft=3;spacingRight=3;rotatable=0;labelPosition=right;points=[];portConstraint=eastwest;strokeColor=inherit;" vertex="1" parent="9MsVMKpVzg76BuHu7BU6-14">
          <mxGeometry y="242" width="190" height="8" as="geometry" />
        </mxCell>
        <mxCell id="9MsVMKpVzg76BuHu7BU6-17" value="+ getters and setters&lt;br&gt;" style="text;strokeColor=none;fillColor=none;align=left;verticalAlign=top;spacingLeft=4;spacingRight=4;overflow=hidden;rotatable=0;points=[[0,0.5],[1,0.5]];portConstraint=eastwest;whiteSpace=wrap;html=1;" vertex="1" parent="9MsVMKpVzg76BuHu7BU6-14">
          <mxGeometry y="250" width="190" height="26" as="geometry" />
        </mxCell>
        <mxCell id="9MsVMKpVzg76BuHu7BU6-27" value="+ equals(): boolean" style="text;strokeColor=none;fillColor=none;align=left;verticalAlign=top;spacingLeft=4;spacingRight=4;overflow=hidden;rotatable=0;points=[[0,0.5],[1,0.5]];portConstraint=eastwest;whiteSpace=wrap;html=1;" vertex="1" parent="9MsVMKpVzg76BuHu7BU6-14">
          <mxGeometry y="276" width="190" height="26" as="geometry" />
        </mxCell>
        <mxCell id="9MsVMKpVzg76BuHu7BU6-28" value="+ toString():string" style="text;strokeColor=none;fillColor=none;align=left;verticalAlign=top;spacingLeft=4;spacingRight=4;overflow=hidden;rotatable=0;points=[[0,0.5],[1,0.5]];portConstraint=eastwest;whiteSpace=wrap;html=1;" vertex="1" parent="9MsVMKpVzg76BuHu7BU6-14">
          <mxGeometry y="302" width="190" height="26" as="geometry" />
        </mxCell>
        <mxCell id="9MsVMKpVzg76BuHu7BU6-29" value="+ clone(smallBiter a): smallBiter" style="text;strokeColor=none;fillColor=none;align=left;verticalAlign=top;spacingLeft=4;spacingRight=4;overflow=hidden;rotatable=0;points=[[0,0.5],[1,0.5]];portConstraint=eastwest;whiteSpace=wrap;html=1;" vertex="1" parent="9MsVMKpVzg76BuHu7BU6-14">
          <mxGeometry y="328" width="190" height="26" as="geometry" />
        </mxCell>
        <mxCell id="9MsVMKpVzg76BuHu7BU6-30" value="+ compareTo(smallBiter o): boolean" style="text;strokeColor=none;fillColor=none;align=left;verticalAlign=top;spacingLeft=4;spacingRight=4;overflow=hidden;rotatable=0;points=[[0,0.5],[1,0.5]];portConstraint=eastwest;whiteSpace=wrap;html=1;" vertex="1" parent="9MsVMKpVzg76BuHu7BU6-14">
          <mxGeometry y="354" width="190" height="36" as="geometry" />
        </mxCell>
        <mxCell id="9MsVMKpVzg76BuHu7BU6-36" value="" style="edgeStyle=orthogonalEdgeStyle;rounded=0;orthogonalLoop=1;jettySize=auto;html=1;" edge="1" parent="1" source="9MsVMKpVzg76BuHu7BU6-31">
          <mxGeometry relative="1" as="geometry">
            <mxPoint x="470" y="-513" as="targetPoint" />
          </mxGeometry>
        </mxCell>
        <mxCell id="9MsVMKpVzg76BuHu7BU6-31" value="mediumBiter" style="swimlane;fontStyle=1;align=center;verticalAlign=top;childLayout=stackLayout;horizontal=1;startSize=26;horizontalStack=0;resizeParent=1;resizeParentMax=0;resizeLast=0;collapsible=1;marginBottom=0;whiteSpace=wrap;html=1;" vertex="1" parent="1">
          <mxGeometry x="510" y="-530" width="160" height="34" as="geometry" />
        </mxCell>
        <mxCell id="9MsVMKpVzg76BuHu7BU6-33" value="" style="line;strokeWidth=1;fillColor=none;align=left;verticalAlign=middle;spacingTop=-1;spacingLeft=3;spacingRight=3;rotatable=0;labelPosition=right;points=[];portConstraint=eastwest;strokeColor=inherit;" vertex="1" parent="9MsVMKpVzg76BuHu7BU6-31">
          <mxGeometry y="26" width="160" height="8" as="geometry" />
        </mxCell>
        <mxCell id="9MsVMKpVzg76BuHu7BU6-42" style="edgeStyle=orthogonalEdgeStyle;rounded=0;orthogonalLoop=1;jettySize=auto;html=1;exitX=0.5;exitY=0;exitDx=0;exitDy=0;entryX=0.5;entryY=1;entryDx=0;entryDy=0;" edge="1" parent="1" source="9MsVMKpVzg76BuHu7BU6-37" target="9MsVMKpVzg76BuHu7BU6-31">
          <mxGeometry relative="1" as="geometry" />
        </mxCell>
        <mxCell id="9MsVMKpVzg76BuHu7BU6-37" value="bigBiter" style="swimlane;fontStyle=1;align=center;verticalAlign=top;childLayout=stackLayout;horizontal=1;startSize=26;horizontalStack=0;resizeParent=1;resizeParentMax=0;resizeLast=0;collapsible=1;marginBottom=0;whiteSpace=wrap;html=1;" vertex="1" parent="1">
          <mxGeometry x="510" y="-470" width="160" height="34" as="geometry" />
        </mxCell>
        <mxCell id="9MsVMKpVzg76BuHu7BU6-39" value="" style="line;strokeWidth=1;fillColor=none;align=left;verticalAlign=middle;spacingTop=-1;spacingLeft=3;spacingRight=3;rotatable=0;labelPosition=right;points=[];portConstraint=eastwest;strokeColor=inherit;" vertex="1" parent="9MsVMKpVzg76BuHu7BU6-37">
          <mxGeometry y="26" width="160" height="8" as="geometry" />
        </mxCell>
        <mxCell id="9MsVMKpVzg76BuHu7BU6-45" value="" style="edgeStyle=orthogonalEdgeStyle;rounded=0;orthogonalLoop=1;jettySize=auto;html=1;" edge="1" parent="1" source="9MsVMKpVzg76BuHu7BU6-43" target="9MsVMKpVzg76BuHu7BU6-44">
          <mxGeometry relative="1" as="geometry" />
        </mxCell>
        <mxCell id="9MsVMKpVzg76BuHu7BU6-46" value="" style="edgeStyle=elbowEdgeStyle;rounded=0;orthogonalLoop=1;jettySize=auto;html=1;elbow=vertical;" edge="1" parent="1" source="9MsVMKpVzg76BuHu7BU6-43" target="9MsVMKpVzg76BuHu7BU6-44">
          <mxGeometry relative="1" as="geometry" />
        </mxCell>
        <mxCell id="9MsVMKpVzg76BuHu7BU6-50" style="edgeStyle=orthogonalEdgeStyle;rounded=0;orthogonalLoop=1;jettySize=auto;html=1;exitX=0.75;exitY=1;exitDx=0;exitDy=0;" edge="1" parent="1" source="9MsVMKpVzg76BuHu7BU6-43" target="9MsVMKpVzg76BuHu7BU6-49">
          <mxGeometry relative="1" as="geometry" />
        </mxCell>
        <mxCell id="9MsVMKpVzg76BuHu7BU6-43" value="Макрооб&#39;єкт MAP" style="html=1;whiteSpace=wrap;" vertex="1" parent="1">
          <mxGeometry x="348" y="-1116" width="110" height="50" as="geometry" />
        </mxCell>
        <mxCell id="9MsVMKpVzg76BuHu7BU6-44" value="Інші макрооб&#39;єкти" style="whiteSpace=wrap;html=1;" vertex="1" parent="1">
          <mxGeometry x="284" y="-987" width="120" height="60" as="geometry" />
        </mxCell>
        <mxCell id="9MsVMKpVzg76BuHu7BU6-49" value="Мікрооб&#39;єкти Small Biter, Medium Biter, Big Biter" style="html=1;whiteSpace=wrap;" vertex="1" parent="1">
          <mxGeometry x="427" y="-987" width="110" height="59" as="geometry" />
        </mxCell>
      </root>
    </mxGraphModel>
  </diagram>
</mxfile>
